<?xml version="1.0" standalone="no"?>
<!DOCTYPE svg PUBLIC "-//W3C//DTD SVG 20010904//EN"
 "http://www.w3.org/TR/2001/REC-SVG-20010904/DTD/svg10.dtd">
<svg version="1.0" xmlns="http://www.w3.org/2000/svg"
 width="1024.000000pt" height="1024.000000pt" viewBox="0 0 1024.000000 1024.000000"
 preserveAspectRatio="xMidYMid meet">
<metadata>
Created by potrace 1.11, written by Peter Selinger 2001-2013
</metadata>
<g transform="translate(0.000000,1024.000000) scale(0.100000,-0.100000)"
fill="#000000" stroke="none">
<path d="M4238 10221 c-54 -21 -118 -59 -118 -70 0 -12 -64 -40 -106 -45 -65
-8 -146 -44 -186 -83 -41 -40 -83 -116 -98 -179 -7 -27 -25 -57 -53 -85 -79
-81 -116 -164 -110 -254 4 -64 6 -74 34 -144 6 -15 7 -51 3 -90 -10 -85 -9
-113 11 -186 9 -33 40 -83 65 -102 8 -7 13 -13 10 -13 -3 -1 -16 -3 -30 -6
-201 -34 -376 -91 -533 -173 -81 -42 -150 -82 -157 -91 -3 -3 -21 -16 -40 -28
-20 -11 -45 -29 -57 -39 -12 -10 -41 -34 -65 -53 -70 -57 -199 -191 -260 -271
-65 -86 -162 -239 -151 -239 5 0 3 -4 -2 -8 -43 -29 -157 -363 -190 -552 -3
-19 -13 -62 -22 -95 -8 -33 -17 -71 -19 -85 -2 -14 -7 -36 -10 -50 -4 -14 -8
-34 -9 -45 -2 -11 -10 -47 -18 -80 -9 -33 -18 -73 -21 -90 -3 -16 -7 -39 -10
-50 -23 -97 -55 -247 -60 -275 -3 -19 -10 -51 -16 -70 -6 -19 -13 -51 -16 -70
-3 -19 -11 -60 -19 -90 -29 -116 -32 -139 -22 -191 8 -38 67 -109 91 -109 21
0 26 -22 25 -128 0 -54 1 -103 2 -108 1 -5 0 -13 -1 -19 -1 -5 -3 -20 -3 -31
-2 -15 -34 -47 -102 -98 -55 -43 -113 -88 -130 -100 -16 -13 -104 -80 -195
-149 -91 -69 -172 -132 -180 -139 -9 -7 -43 -33 -75 -58 -33 -25 -65 -49 -72
-55 -6 -5 -22 -18 -35 -27 -80 -60 -149 -121 -159 -140 -22 -40 -20 -119 4
-161 21 -37 70 -75 105 -82 9 -2 202 -4 429 -4 l412 -1 -1 -84 c0 -46 2 -88 6
-94 3 -6 2 -13 -4 -17 -6 -4 -8 -10 -6 -14 7 -10 7 -42 6 -261 -1 -193 6 -437
14 -480 2 -14 7 -50 11 -80 13 -101 35 -201 71 -318 14 -48 27 -91 29 -97 2
-12 4 -17 60 -155 39 -96 94 -208 148 -300 28 -49 100 -164 107 -170 3 -3 21
-27 40 -55 42 -60 43 -61 116 -150 139 -169 324 -349 479 -465 33 -25 62 -48
65 -51 10 -12 197 -136 290 -193 93 -57 357 -189 475 -239 81 -35 235 -91 320
-118 39 -12 73 -26 76 -31 3 -5 5 -195 5 -423 l-1 -415 -155 -110 c-85 -60
-162 -116 -170 -123 -8 -7 -45 -34 -81 -60 -78 -54 -104 -98 -96 -163 8 -78
75 -139 147 -136 34 2 90 20 100 32 10 11 242 175 248 175 4 0 8 -45 9 -100 2
-112 18 -154 68 -185 67 -41 138 -35 190 17 43 43 48 62 49 185 0 63 4 94 11
90 18 -10 79 -56 99 -74 11 -10 25 -18 32 -18 7 0 14 -4 16 -8 8 -20 139 -103
174 -110 125 -26 222 115 157 228 -8 14 -81 73 -161 130 -81 58 -154 110 -162
117 -8 7 -49 37 -91 67 l-76 55 1 378 1 378 30 -2 c17 -1 53 -7 80 -13 67 -14
91 -18 150 -25 28 -3 61 -7 75 -10 24 -4 103 -13 180 -20 183 -18 502 -24 663
-12 53 4 98 4 98 0 1 -5 2 -159 3 -344 l1 -336 -159 -114 c-87 -63 -165 -120
-172 -127 -7 -6 -15 -12 -18 -12 -19 0 -126 -95 -140 -124 -51 -108 26 -221
147 -215 37 2 60 13 133 65 49 35 94 67 99 71 17 14 103 73 108 73 2 0 3 -42
2 -94 -2 -146 37 -208 138 -220 59 -7 104 13 137 61 29 42 31 52 31 170 l0 92
52 -36 c29 -20 79 -56 112 -80 33 -24 80 -57 104 -74 167 -110 335 111 184
241 -16 14 -37 30 -45 35 -18 11 -172 122 -314 226 l-92 67 1 365 0 365 41 7
c23 5 48 9 56 10 8 0 25 4 37 8 24 9 59 17 88 22 11 2 21 4 23 5 1 2 5 3 10 4
94 23 365 118 489 172 17 8 36 14 42 14 6 0 11 5 11 10 0 6 8 10 18 10 10 0
23 5 30 12 7 7 12 8 12 2 0 -5 3 -5 8 1 8 12 158 87 168 85 4 -1 10 3 13 8 3
5 32 23 63 40 32 16 70 40 87 51 16 12 34 21 40 21 6 0 11 5 11 10 0 6 4 10 9
10 5 0 37 19 71 42 35 24 71 47 81 53 11 5 19 13 19 17 0 5 6 8 14 8 8 0 16 3
18 8 2 4 30 27 63 52 33 25 62 47 65 50 3 3 30 25 60 50 114 93 331 304 425
414 28 32 55 63 60 69 6 7 26 32 45 57 19 25 39 50 45 57 5 7 15 18 21 26 6 7
31 42 55 78 24 35 46 66 49 69 4 3 20 29 36 57 16 29 32 53 37 53 4 0 7 4 7 9
0 5 19 42 43 83 122 206 281 607 312 783 2 17 7 41 10 55 20 85 22 100 41 249
12 97 16 321 5 321 -6 0 -11 6 -11 13 0 16 -57 71 -85 82 -41 17 -102 12 -190
-17 -112 -36 -381 -103 -455 -112 -14 -2 -44 -7 -67 -10 -98 -16 -167 -23
-272 -31 -40 -3 -77 -8 -81 -10 -5 -3 -11 -1 -15 4 -3 6 -16 7 -28 3 -31 -11
-587 -1 -717 13 -25 2 -83 7 -130 11 -47 3 -98 8 -115 10 -16 2 -52 5 -80 8
-49 5 -119 14 -155 21 -9 2 -34 6 -54 9 -20 3 -52 9 -72 12 -20 3 -46 8 -58
10 -11 3 -32 7 -46 10 -14 2 -35 6 -47 9 -13 3 -25 6 -28 6 -2 0 -34 9 -70 19
-36 10 -66 19 -68 19 -1 0 -9 2 -17 5 -53 17 -96 30 -100 31 -12 2 -88 30
-120 43 -19 9 -37 16 -40 17 -3 1 -22 9 -44 18 -21 9 -42 17 -47 17 -5 0 -9 5
-9 10 0 6 -5 10 -11 10 -6 0 -23 9 -37 19 -15 10 -31 20 -37 21 -18 5 -82 48
-141 96 -113 91 -192 188 -249 306 -20 40 -36 75 -35 78 0 3 -7 26 -15 51 -9
25 -18 61 -20 80 -3 19 -7 45 -10 59 -9 42 -7 146 4 187 10 37 21 93 25 123 2
8 6 26 10 38 4 13 9 34 11 45 5 32 15 80 21 99 3 10 7 30 10 45 2 16 12 57 20
93 9 36 18 74 19 85 2 11 11 49 19 85 9 36 18 76 20 90 3 14 14 68 26 120 12
52 23 104 25 115 1 11 8 38 13 60 6 22 13 51 16 65 2 14 9 45 14 70 6 25 13
62 16 84 4 21 8 41 10 45 16 26 24 331 12 436 -9 82 -14 119 -20 145 -3 14 -8
36 -10 50 -11 58 -17 79 -30 119 -9 22 -13 41 -9 41 3 0 1 6 -4 13 -6 6 -13
26 -17 42 -8 31 -18 55 -81 185 -42 87 -44 91 -109 190 -96 145 -239 303 -366
401 -30 24 -56 46 -58 51 -2 4 -9 8 -15 8 -7 0 -25 11 -40 24 l-29 25 39 19
c76 39 132 114 157 207 12 45 26 70 64 109 62 65 79 93 96 160 20 76 14 144
-22 225 -9 20 -15 38 -15 41 17 105 19 137 9 195 -13 83 -76 167 -166 222 -23
14 -45 42 -64 80 -30 58 -127 163 -152 163 -7 0 -25 5 -41 12 -15 6 -66 12
-113 13 -72 2 -96 7 -155 35 -90 41 -179 49 -247 21z m-168 -1585 c108 -10
331 -69 396 -104 11 -6 48 -25 84 -43 69 -34 185 -106 210 -130 8 -8 29 -25
45 -37 42 -32 185 -174 185 -184 0 -4 8 -16 18 -26 25 -27 52 -62 52 -67 0 -2
13 -23 29 -47 39 -59 73 -123 100 -188 12 -30 26 -64 31 -75 60 -140 91 -361
81 -579 -1 -30 -5 -31 -81 -12 -14 3 -34 8 -45 10 -43 9 -131 28 -155 32 -14
3 -33 7 -42 10 -9 3 -27 7 -40 10 -77 16 -113 24 -198 43 -52 11 -104 22 -115
24 -11 2 -27 7 -35 10 -8 3 -51 12 -95 21 -44 8 -140 29 -214 46 -131 30 -251
56 -301 66 -14 3 -43 10 -65 15 -40 10 -59 14 -105 23 -14 3 -54 12 -90 20
-36 8 -132 28 -215 46 -82 17 -157 34 -165 37 -8 3 -22 7 -30 8 -15 2 -191 40
-240 52 -14 3 -33 8 -42 9 -9 2 -70 15 -135 30 -65 14 -129 28 -143 31 -14 3
-29 6 -35 8 -5 1 -29 6 -53 10 -23 4 -45 11 -47 16 -10 15 107 259 127 267 4
2 8 9 8 15 0 7 16 32 35 57 19 25 45 58 58 74 28 37 140 151 190 193 21 18 73
55 115 83 42 27 82 53 87 58 6 4 17 8 25 10 8 2 17 8 18 13 2 5 8 9 14 9 6 0
35 11 63 25 51 24 186 71 229 79 103 21 140 27 201 32 38 3 71 6 72 7 3 4 159
-2 213 -7z m-1482 -1261 c12 -4 35 -8 50 -11 91 -13 277 -62 274 -73 -1 -6 -5
-28 -8 -48 -3 -19 -7 -43 -9 -52 -30 -131 -108 -482 -111 -501 -3 -14 -9 -41
-14 -60 -13 -52 -43 -193 -43 -208 0 -10 -12 -12 -44 -8 -24 3 -47 7 -52 10
-4 3 -23 8 -42 10 -19 3 -72 15 -119 26 -47 12 -95 23 -108 24 -12 2 -25 6
-28 9 -4 3 1 37 10 74 9 37 19 83 21 102 3 19 8 37 10 41 3 4 7 25 10 46 4 22
10 53 15 69 5 17 12 42 15 58 3 15 7 39 10 55 17 86 97 438 102 445 2 4 12 6
21 3 10 -2 27 -7 40 -11z m732 -161 c19 -3 49 -9 65 -14 17 -5 44 -11 60 -14
17 -3 47 -9 68 -15 20 -5 37 -7 37 -5 0 3 8 0 18 -5 9 -5 35 -12 56 -15 97
-16 95 -12 70 -116 -9 -36 -17 -74 -20 -85 -2 -11 -6 -31 -9 -45 -3 -14 -7
-34 -9 -45 -3 -11 -14 -63 -26 -115 -12 -52 -24 -106 -26 -120 -3 -14 -21 -94
-40 -178 -18 -84 -36 -165 -38 -179 -7 -35 -9 -36 -52 -24 -22 6 -57 13 -78
17 -22 3 -51 10 -65 16 -14 5 -27 9 -29 8 -5 -2 -79 12 -137 27 -71 18 -86 21
-102 22 -11 1 -11 8 2 64 3 12 7 33 9 47 2 14 9 45 16 70 7 25 14 54 16 65 4
26 10 56 28 136 8 36 17 77 20 90 3 13 8 35 11 49 3 14 8 36 11 50 3 14 14 66
25 115 12 50 23 101 25 115 15 77 25 102 42 95 9 -4 33 -9 52 -11z m865 -189
c39 -8 79 -17 90 -20 101 -22 165 -36 189 -41 53 -9 52 9 5 -204 -17 -74 -33
-146 -35 -160 -3 -14 -14 -65 -25 -115 -12 -49 -22 -99 -25 -110 -2 -11 -11
-51 -19 -90 -9 -38 -23 -101 -31 -140 -22 -100 -20 -96 -47 -86 -13 5 -37 11
-53 14 -16 3 -59 12 -97 21 -37 9 -82 18 -100 21 -17 3 -50 11 -72 17 -22 6
-53 12 -70 15 -16 3 -33 8 -37 12 -8 7 -1 40 67 346 15 66 28 127 30 135 1 8
5 26 9 40 4 14 8 36 10 50 2 14 6 32 9 40 3 8 18 75 33 149 l28 133 35 -5 c20
-4 68 -13 106 -22z m825 -181 c14 -3 33 -7 42 -10 10 -3 30 -8 45 -10 16 -3
46 -10 68 -15 22 -5 47 -11 55 -13 8 -2 14 -8 14 -12 -1 -5 -13 -61 -27 -124
-14 -63 -28 -126 -30 -140 -3 -14 -10 -43 -15 -65 -6 -22 -13 -53 -15 -70 -3
-16 -13 -61 -22 -100 -19 -78 -23 -97 -31 -140 -2 -16 -9 -46 -14 -65 -5 -19
-11 -46 -14 -60 -17 -92 -29 -128 -39 -125 -14 4 -129 32 -167 40 -14 2 -43 9
-65 14 -22 5 -62 13 -88 19 -26 5 -51 12 -54 16 -3 3 6 61 21 128 15 68 29
134 32 147 3 12 11 51 19 85 8 33 16 72 19 86 2 14 17 79 31 145 33 143 45
200 52 240 11 62 15 64 90 48 38 -8 79 -17 93 -19z m-2502 -739 c34 -8 77 -17
95 -19 17 -3 69 -14 115 -25 45 -12 95 -23 110 -26 15 -3 38 -7 52 -11 35 -8
110 -24 140 -30 14 -3 41 -9 60 -14 19 -5 46 -11 60 -14 14 -2 55 -11 91 -20
37 -8 78 -17 90 -20 44 -9 74 -16 164 -36 50 -11 101 -22 115 -24 14 -3 25 -5
25 -6 0 -2 9 -4 60 -14 17 -3 71 -15 120 -26 108 -24 181 -40 215 -46 14 -2
31 -7 39 -9 7 -3 48 -12 90 -21 42 -9 85 -18 96 -21 11 -2 29 -6 40 -8 11 -1
38 -8 60 -13 22 -6 51 -13 65 -16 14 -3 68 -14 120 -26 52 -11 106 -23 120
-26 21 -4 68 -15 130 -29 8 -2 49 -11 90 -20 41 -9 84 -19 95 -22 11 -2 25 -5
30 -5 6 -1 12 -13 13 -28 2 -20 -16 -50 -70 -117 -40 -50 -82 -103 -93 -118
-11 -16 -25 -33 -30 -39 -6 -6 -21 -28 -34 -49 -13 -21 -29 -43 -35 -50 -7 -7
-19 -23 -26 -37 -7 -13 -17 -29 -22 -34 -21 -26 -98 -152 -98 -163 0 -6 -4
-13 -9 -15 -11 -4 -92 -157 -148 -283 -87 -192 -143 -377 -167 -551 -17 -123
-12 -337 9 -404 3 -10 7 -31 10 -46 11 -83 91 -257 160 -349 56 -75 176 -205
189 -205 3 0 18 -12 33 -26 28 -26 187 -134 198 -134 3 0 22 -11 43 -23 126
-79 539 -219 712 -241 19 -3 49 -7 65 -10 125 -22 413 -23 525 -1 13 3 40 7
60 10 20 3 47 8 60 11 14 3 39 8 55 11 17 3 38 9 48 14 9 5 17 8 17 5 0 -3 26
4 58 15 31 11 64 22 72 24 8 2 16 4 18 5 1 2 5 3 10 4 4 1 24 10 46 19 21 9
41 17 44 17 16 0 238 120 320 174 225 145 471 374 654 606 23 30 45 57 48 60
15 12 154 214 206 300 78 125 88 144 126 218 23 44 38 62 53 63 11 0 34 2 50
4 17 2 53 6 80 9 72 7 126 15 155 21 28 6 59 11 110 20 19 3 42 8 50 10 8 2
29 7 45 10 17 3 55 12 85 20 67 18 91 19 85 3 -2 -7 -7 -31 -10 -53 -21 -162
-96 -429 -158 -567 -9 -18 -25 -55 -37 -83 -33 -78 -54 -120 -63 -123 -4 -2
-7 -8 -7 -14 0 -23 -185 -322 -244 -395 -8 -10 -43 -54 -77 -98 -82 -104 -120
-146 -260 -285 -122 -120 -175 -170 -184 -170 -3 0 -13 -8 -23 -17 -42 -41
-82 -72 -172 -136 -52 -38 -102 -74 -111 -81 -8 -7 -31 -21 -50 -32 -19 -10
-36 -21 -39 -24 -14 -16 -191 -113 -300 -166 -159 -77 -174 -84 -184 -84 -6 0
-24 -7 -39 -15 -27 -14 -281 -103 -319 -111 -10 -2 -26 -6 -35 -9 -160 -44
-292 -71 -438 -89 -27 -3 -66 -8 -85 -11 -119 -16 -453 -22 -610 -11 -119 9
-215 18 -221 21 -3 2 -32 6 -65 9 -32 4 -70 9 -84 12 -14 3 -38 7 -55 10 -69
11 -145 27 -220 46 -44 11 -91 22 -104 25 -14 2 -28 6 -33 9 -4 3 -16 7 -25 9
-183 39 -620 225 -816 346 -43 27 -81 49 -84 49 -4 0 -21 11 -39 25 -18 14
-37 25 -42 25 -6 0 -12 7 -16 15 -3 8 -10 15 -16 15 -8 0 -160 110 -180 130
-3 3 -34 30 -70 59 -81 69 -250 238 -310 311 -25 30 -47 57 -50 60 -3 3 -17
21 -30 40 -13 19 -27 37 -30 40 -14 13 -70 99 -70 108 0 6 -4 12 -8 14 -11 4
-78 120 -130 223 -41 84 -132 317 -132 341 0 7 -6 33 -14 56 -14 42 -18 58
-37 168 -5 30 -12 66 -14 80 -13 71 -17 340 -19 1207 -1 841 1 953 14 953 8 0
43 -7 78 -15z m2652 -1062 c106 -188 320 -390 528 -499 26 -13 54 -28 62 -33
23 -13 113 -53 203 -90 48 -19 266 -88 303 -95 11 -2 51 -12 89 -21 39 -9 81
-18 95 -20 14 -2 63 -11 110 -19 47 -8 103 -18 125 -21 23 -3 50 -7 60 -9 11
-2 52 -7 90 -11 39 -3 84 -8 100 -11 39 -5 221 -18 319 -23 24 -1 16 -10 -13
-16 -13 -2 -30 -6 -39 -9 -9 -3 -30 -8 -47 -11 -16 -2 -55 -9 -85 -15 -165
-29 -452 -31 -580 -5 -14 3 -43 8 -65 11 -22 4 -47 10 -56 15 -24 12 -100 5
-139 -14 -54 -26 -83 -77 -86 -148 -1 -32 2 -59 7 -59 5 0 9 -6 9 -12 1 -20
33 -54 70 -73 31 -16 102 -36 177 -50 15 -2 39 -7 53 -10 123 -25 501 -24 625
2 21 4 42 7 110 18 37 5 34 2 -45 -44 -47 -28 -89 -51 -94 -51 -5 0 -17 -6
-25 -13 -9 -8 -32 -20 -51 -27 -19 -7 -53 -21 -75 -30 -50 -22 -153 -60 -163
-60 -18 -2 -60 -13 -94 -26 -21 -8 -38 -12 -38 -10 0 3 -15 0 -32 -5 -18 -5
-55 -12 -83 -15 -27 -3 -67 -9 -88 -14 -44 -9 -398 -6 -442 4 -153 36 -219 60
-352 128 -57 29 -82 36 -117 34 -55 -3 -119 -43 -142 -88 -23 -44 -21 -118 3
-160 17 -31 123 -112 132 -102 2 2 11 -2 20 -9 14 -12 46 -27 148 -69 15 -6
33 -12 38 -14 6 -1 44 -12 85 -23 41 -12 91 -24 110 -27 19 -3 46 -8 60 -11
14 -3 104 -7 200 -8 178 -3 254 2 435 30 62 10 275 65 328 86 26 10 47 17 47
14 0 -7 -104 -82 -162 -116 -147 -88 -344 -167 -479 -194 -67 -14 -86 -17
-114 -21 -275 -36 -457 -20 -775 71 -8 2 -59 20 -114 40 -246 88 -449 222
-564 372 -33 42 -99 167 -107 200 -3 10 -9 38 -15 63 -10 42 -22 121 -22 145
4 193 48 389 132 580 28 65 113 237 123 250 6 9 76 124 117 195 8 14 18 27 21
30 6 6 87 121 109 156 8 13 18 24 22 24 3 0 21 -26 38 -57z"/>
<path d="M3155 5751 c-93 -27 -162 -67 -233 -137 -36 -35 -62 -64 -58 -64 4 0
-4 -15 -18 -32 -58 -78 -90 -251 -66 -370 18 -94 73 -197 142 -266 58 -59 167
-126 221 -136 15 -2 37 -8 49 -12 76 -24 238 -1 337 48 62 32 191 143 191 166
0 6 3 12 8 14 7 3 41 69 62 122 35 90 31 240 -10 348 -76 205 -268 336 -489
336 -42 0 -103 -8 -136 -17z m205 -296 c49 -12 125 -91 140 -146 23 -83 1
-160 -60 -219 -42 -40 -70 -52 -130 -57 -132 -11 -244 98 -233 227 4 52 7 62
28 95 57 91 145 125 255 100z"/>
</g>
</svg>
